<?xml version="1.0" encoding="UTF-8"?>
<svg xmlns="http://www.w3.org/2000/svg" xmlns:xlink="http://www.w3.org/1999/xlink" width="200pt" height="200pt" viewBox="0 0 200 200" version="1.1">
<g id="surface1">
<path style="fill:none;stroke-width:0.8;stroke-linecap:round;stroke-linejoin:round;stroke:rgb(23.529412%,23.529412%,23.529412%);stroke-opacity:0.392157;stroke-miterlimit:4;" d="M 850.496883 225.907056 C 850.301114 225.917638 850.268146 225.932697 849.809451 226.19603 C 849.612867 226.308974 849.418929 226.418458 849.379653 226.440233 C 849.340377 226.462008 849.246969 226.515733 849.17269 226.559486 C 849.098412 226.603035 849.013754 226.653504 848.983229 226.670802 C 848.932557 226.699292 848.665154 226.851919 847.750816 227.377771 C 847.576007 227.478301 847.41178 227.573744 847.385528 227.5886 C 847.35948 227.603659 847.198509 227.695235 847.028177 227.793731 C 846.857845 227.892226 846.691176 227.988076 846.656988 228.006595 C 846.555847 228.061744 846.405458 228.220883 846.348477 228.334845 C 846.243266 228.544046 846.250796 228.411972 846.250796 230.703822 C 846.250796 232.723995 846.25161 232.850777 846.29577 232.965553 C 846.370252 233.160508 846.464881 233.284849 846.616084 233.387618 C 846.666959 233.42201 846.711526 233.451925 846.715597 233.451925 C 846.719667 233.451925 846.801475 233.496695 846.899156 233.553472 C 846.997041 233.61025 847.079867 233.657055 847.082716 233.657055 C 847.085768 233.657055 847.134609 233.685953 847.190165 233.719531 C 847.245722 233.753109 847.322849 233.798897 847.362125 233.821079 C 847.452684 233.872361 847.736774 234.034146 847.799656 234.07098 C 847.825705 234.086446 847.919113 234.139968 848.006619 234.190233 C 848.093921 234.240498 848.185498 234.294019 848.21175 234.309282 C 848.267916 234.342453 848.657828 234.565696 848.760597 234.623694 C 848.799873 234.646079 848.876797 234.691868 848.932353 234.725446 C 848.98791 234.759023 849.03675 234.785886 849.039803 234.785886 C 849.042855 234.785886 849.10411 234.821499 849.176557 234.864031 C 849.249004 234.90636 849.340377 234.959067 849.379653 234.981249 C 849.418929 235.003227 849.605744 235.108438 849.793781 235.217515 C 850.202822 235.4548 850.237214 235.471691 850.397167 235.508525 C 850.510111 235.534776 850.546538 235.536404 850.660907 235.516461 C 850.750041 235.500791 850.911419 235.44666 850.946014 235.420815 C 850.962701 235.408198 851.108206 235.32354 851.252693 235.242953 C 851.299702 235.216905 851.486518 235.109659 851.666821 235.004855 C 851.846921 234.899847 852.0258 234.796468 852.06528 234.774286 C 852.128366 234.738877 852.695121 234.413679 852.82109 234.340622 C 852.910834 234.288728 853.18597 234.13081 853.256586 234.09072 C 853.295455 234.068742 853.362814 234.029059 853.406974 234.002807 C 853.5014 233.946844 853.572422 233.906957 853.670714 233.852418 C 853.70999 233.830643 853.803398 233.777122 853.877677 233.733369 C 853.951955 233.689616 854.052282 233.6306 854.100309 233.604348 C 854.148539 233.578096 854.224242 233.533936 854.270234 233.504835 C 854.316225 233.475531 854.358147 233.452128 854.362013 233.452128 C 854.391521 233.452128 854.55412 233.326974 854.623718 233.250864 C 854.724045 233.141379 854.787538 233.010527 854.821116 232.850574 C 854.857543 232.676375 854.859374 228.745107 854.823151 228.56928 C 854.792218 228.420316 854.722213 228.279696 854.62962 228.176723 C 854.530717 228.066628 854.478417 228.031829 854.036002 227.782131 C 853.996726 227.759949 853.879101 227.692793 853.774297 227.631742 C 853.614751 227.538945 852.836149 227.090018 852.676603 226.998849 C 852.650351 226.983993 852.543105 226.923145 852.438301 226.862298 C 852.333497 226.801247 852.215872 226.731853 852.176596 226.709874 C 852.13732 226.687896 851.933207 226.572714 851.723395 226.452036 C 851.513787 226.331359 851.233157 226.170795 851.100473 226.094685 C 850.803155 225.923946 850.715038 225.895456 850.496883 225.907056 Z M 850.496883 225.907056 " transform="matrix(19.195061,0,0,19.195061,-16226.359088,-4328.588776)"/>
<path style="fill:none;stroke-width:0.5;stroke-linecap:round;stroke-linejoin:round;stroke:rgb(100%,100%,100%);stroke-opacity:1;stroke-miterlimit:4;" d="M 850.497087 225.913568 C 850.301317 225.923946 850.26835 225.939006 849.809654 226.202542 C 849.612867 226.315486 849.419132 226.42497 849.379856 226.446745 C 849.34058 226.46852 849.247172 226.522041 849.172894 226.565794 C 849.098615 226.609548 849.013958 226.660016 848.983433 226.677111 C 848.93276 226.705601 848.665358 226.858228 847.751019 227.384283 C 847.57621 227.484813 847.411983 227.580256 847.385732 227.595112 C 847.35948 227.609968 847.198712 227.701747 847.02838 227.800243 C 846.857845 227.898738 846.69138 227.994588 846.657191 228.013107 C 846.555847 228.068053 846.405662 228.227395 846.348681 228.341153 C 846.24347 228.550354 846.251 228.418281 846.251 230.710334 C 846.251 232.730303 846.251814 232.857086 846.29577 232.972065 C 846.370456 233.167021 846.465085 233.291361 846.616084 233.393926 C 846.666959 233.428522 846.71173 233.458437 846.7158 233.458437 C 846.719667 233.458437 846.801678 233.503207 846.89936 233.559985 C 846.997245 233.616762 847.079867 233.663364 847.082919 233.663364 C 847.085972 233.663364 847.134812 233.692261 847.190369 233.725839 C 847.245925 233.759621 847.322849 233.805409 847.362329 233.827591 C 847.452887 233.87867 847.736774 234.040658 847.799656 234.077492 C 847.825908 234.092959 847.919316 234.14648 848.006822 234.196542 C 848.094125 234.246807 848.185701 234.300328 848.21175 234.315794 C 848.26812 234.348965 848.657828 234.572208 848.760597 234.630206 C 848.800076 234.652388 848.877001 234.698176 848.932557 234.731754 C 848.988113 234.765332 849.036954 234.792398 849.040006 234.792398 C 849.043059 234.792398 849.104313 234.827807 849.17676 234.87034 C 849.249004 234.912872 849.34058 234.965579 849.379856 234.987557 C 849.419132 235.009536 849.605948 235.11495 849.793781 235.223824 C 850.203025 235.461108 850.237417 235.477999 850.39737 235.514833 C 850.510111 235.541085 850.546742 235.542917 850.66111 235.522973 C 850.750244 235.507304 850.911622 235.453172 850.946218 235.427327 C 850.962905 235.41471 851.10841 235.329849 851.252897 235.249465 C 851.299906 235.223214 851.486721 235.116171 851.667025 235.011164 C 851.847125 234.90636 852.026004 234.802777 852.06528 234.780798 C 852.128366 234.745185 852.695325 234.419988 852.821293 234.347134 C 852.910834 234.29524 853.18597 234.137119 853.256789 234.097232 C 853.295658 234.07505 853.363018 234.035367 853.407178 234.009319 C 853.5014 233.953152 853.572626 233.913469 853.670918 233.85893 C 853.710194 233.837155 853.803602 233.783634 853.87788 233.739678 C 853.952159 233.695924 854.052486 233.637112 854.100512 233.61086 C 854.148539 233.584608 854.224242 233.540448 854.270437 233.511144 C 854.316429 233.482043 854.358147 233.458437 854.362217 233.458437 C 854.391725 233.458437 854.554324 233.333282 854.623922 233.257376 C 854.724248 233.147891 854.787741 233.017039 854.821319 232.856882 C 854.857746 232.682887 854.859578 228.751619 854.823151 228.575792 C 854.792422 228.426828 854.722417 228.286004 854.629823 228.183032 C 854.530921 228.072937 854.478621 228.038138 854.036205 227.788643 C 853.996726 227.766461 853.879305 227.699102 853.774297 227.638255 C 853.614751 227.545457 852.836352 227.09653 852.676806 227.005361 C 852.650554 226.990505 852.543308 226.929658 852.438504 226.868607 C 852.333497 226.807759 852.216076 226.738161 852.1768 226.716387 C 852.137524 226.694408 851.93341 226.579226 851.723599 226.458548 C 851.513787 226.337871 851.23336 226.177307 851.100473 226.100994 C 850.803359 225.930458 850.715242 225.901968 850.497087 225.913568 Z M 850.497087 225.913568 " transform="matrix(19.195061,0,0,19.195061,-16226.359088,-4328.588776)"/>
<path style=" stroke:none;fill-rule:evenodd;fill:rgb(60.784314%,30.980392%,58.823529%);fill-opacity:1;" d="M 98.980469 7.664062 C 95.222656 7.867188 94.589844 8.15625 85.785156 13.214844 C 82.007812 15.382812 78.289062 17.480469 77.535156 17.898438 C 76.78125 18.316406 74.988281 19.347656 73.5625 20.1875 C 72.136719 21.023438 70.511719 21.992188 69.925781 22.324219 C 68.953125 22.871094 63.820312 25.800781 46.269531 35.894531 C 42.914062 37.824219 39.761719 39.65625 39.257812 39.945312 C 38.753906 40.230469 35.667969 41.988281 32.398438 43.878906 C 29.125 45.769531 25.929688 47.609375 25.273438 47.96875 C 23.328125 49.023438 20.445312 52.082031 19.351562 54.265625 C 17.332031 58.28125 17.476562 55.746094 17.476562 99.742188 C 17.476562 138.515625 17.492188 140.949219 18.335938 143.15625 C 19.769531 146.894531 21.585938 149.28125 24.484375 151.253906 C 25.464844 151.914062 26.320312 152.488281 26.398438 152.488281 C 26.472656 152.488281 28.046875 153.347656 29.921875 154.4375 C 31.800781 155.527344 33.386719 156.425781 33.445312 156.425781 C 33.503906 156.425781 34.441406 156.980469 35.507812 157.625 C 36.574219 158.269531 38.050781 159.148438 38.808594 159.574219 C 40.546875 160.558594 45.996094 163.664062 47.203125 164.375 C 47.707031 164.667969 49.5 165.695312 51.179688 166.660156 C 52.855469 167.625 54.613281 168.652344 55.117188 168.945312 C 56.195312 169.582031 63.675781 173.867188 65.648438 174.984375 C 66.40625 175.410156 67.882812 176.289062 68.949219 176.933594 C 70.015625 177.578125 70.953125 178.09375 71.011719 178.09375 C 71.070312 178.09375 72.246094 178.777344 73.636719 179.59375 C 75.023438 180.410156 76.78125 181.421875 77.535156 181.84375 C 78.289062 182.265625 81.875 184.285156 85.484375 186.378906 C 93.335938 190.933594 93.996094 191.257812 97.066406 191.964844 C 99.230469 192.46875 99.933594 192.5 102.128906 192.117188 C 103.839844 191.816406 106.9375 190.777344 107.601562 190.28125 C 107.921875 190.042969 110.714844 188.414062 113.488281 186.871094 C 114.390625 186.367188 117.976562 184.308594 121.4375 182.296875 C 124.894531 180.28125 128.328125 178.296875 129.082031 177.871094 C 130.292969 177.191406 141.175781 170.949219 143.59375 169.550781 C 145.3125 168.550781 150.597656 165.519531 151.953125 164.75 C 152.699219 164.328125 153.992188 163.566406 154.839844 163.0625 C 156.648438 161.988281 158.015625 161.222656 159.902344 160.175781 C 160.65625 159.757812 162.449219 158.730469 163.875 157.890625 C 165.300781 157.050781 167.226562 155.921875 168.148438 155.414062 C 169.070312 154.910156 170.523438 154.0625 171.410156 153.503906 C 172.292969 152.941406 173.09375 152.492188 173.171875 152.492188 C 173.738281 152.492188 176.859375 150.089844 178.195312 148.628906 C 180.121094 146.527344 181.339844 144.015625 181.984375 140.945312 C 182.683594 137.601562 182.71875 62.140625 182.019531 58.765625 C 181.429688 55.90625 180.085938 53.207031 178.308594 51.230469 C 176.410156 49.117188 175.40625 48.449219 166.914062 43.65625 C 166.15625 43.230469 163.902344 41.941406 161.886719 40.769531 C 158.824219 38.988281 143.882812 30.371094 140.820312 28.625 C 140.316406 28.335938 138.257812 27.171875 136.246094 26 C 134.230469 24.828125 131.976562 23.496094 131.222656 23.074219 C 130.46875 22.65625 126.550781 20.441406 122.523438 18.125 C 118.496094 15.8125 113.113281 12.726562 110.5625 11.265625 C 104.859375 7.992188 103.167969 7.441406 98.980469 7.667969 Z M 98.980469 7.664062 "/>
<path style=" stroke:none;fill-rule:evenodd;fill:rgb(40.784314%,12.941176%,47.843137%);fill-opacity:1;" d="M 20.429688 147.152344 C 22.484375 150.308594 23.425781 150.257812 32.207031 155.355469 C 35.972656 157.542969 39.648438 159.710938 40.390625 160.15625 C 41.128906 160.601562 42.917969 161.636719 44.355469 162.453125 C 45.796875 163.269531 47.445312 164.191406 48.027344 164.535156 C 48.984375 165.101562 54.089844 168.085938 71.605469 178.238281 C 74.957031 180.175781 78.121094 181.992188 78.617188 182.285156 C 79.117188 182.574219 82.183594 184.367188 85.457031 186.257812 C 88.730469 188.144531 91.921875 189.992188 92.558594 190.382812 C 94.445312 191.539062 98.535156 192.507812 100.976562 192.363281 C 105.464844 192.105469 103.195312 193.246094 141.296875 171.25 C 174.875 151.863281 176.972656 150.628906 178.460938 148.796875 C 180.984375 145.683594 182.144531 142.917969 182.402344 139.421875 C 182.476562 138.246094 182.554688 137.214844 182.515625 137.148438 C 182.476562 137.089844 182.441406 135.289062 182.441406 133.121094 C 182.445312 130.949219 182.425781 129.125 182.402344 129.078125 C 182.382812 129.019531 182.382812 127.9375 182.410156 126.691406 C 182.429688 125.445312 182.449219 123.726562 182.449219 122.859375 C 182.429688 120.863281 182.390625 114.585938 182.410156 113.1875 C 182.414062 112.601562 182.40625 110.535156 182.402344 108.601562 C 182.398438 106.667969 182.410156 104.632812 182.414062 104.050781 C 182.425781 102.796875 182.394531 94.171875 182.375 91.90625 C 182.367188 91.042969 182.390625 89.320312 182.414062 88.074219 C 182.433594 86.832031 182.421875 85.757812 182.394531 85.707031 C 182.375 85.652344 182.375 84.296875 182.382812 82.6875 C 182.394531 81.074219 182.390625 79.050781 182.378906 78.183594 C 182.367188 77.320312 182.324219 73.203125 182.34375 69.035156 C 182.359375 59.953125 182.304688 59.222656 181.386719 56.207031 C 181.015625 54.980469 180.433594 54.359375 179.992188 53.636719 L 20.039062 146.21875 C 20.230469 146.535156 20.230469 146.8125 20.445312 147.152344 Z M 20.429688 147.152344 "/>
<path style=" stroke:none;fill-rule:evenodd;fill:rgb(50.588235%,21.568627%,52.941176%);fill-opacity:1;" d="M 180.59375 145.503906 C 182.296875 142.144531 182.363281 141.453125 182.386719 131.300781 C 182.394531 126.945312 182.441406 122.675781 182.441406 121.8125 C 182.457031 120.953125 182.460938 118.882812 182.449219 117.230469 C 182.4375 115.574219 182.410156 113.683594 182.410156 113.011719 C 182.421875 111.894531 182.449219 105.984375 182.488281 85.738281 C 182.492188 81.867188 182.480469 78.222656 182.484375 77.640625 C 182.488281 77.066406 182.503906 73.511719 182.503906 69.734375 C 182.503906 65.953125 182.507812 62.265625 182.523438 61.519531 C 182.582031 59.414062 181.257812 55.753906 179.992188 53.636719 L 100 100 L 179.96875 146.324219 C 180.144531 146.003906 180.390625 145.867188 180.574219 145.503906 Z M 180.59375 145.503906 "/>
<path style=" stroke:none;fill-rule:evenodd;fill:rgb(100%,100%,100%);fill-opacity:1;" d="M 96.402344 45.3125 L 96.402344 45.351562 C 89.15625 45.859375 82.050781 47.691406 75.855469 50.863281 C 54.324219 61.886719 42.539062 84.476562 45.976562 108.148438 C 47.046875 115.507812 50 123.347656 54 129.441406 C 54.785156 130.636719 55.496094 131.691406 55.574219 131.765625 C 55.648438 131.84375 56.355469 132.746094 57.109375 133.753906 C 58.996094 136.269531 63.769531 141.050781 66.707031 143.351562 C 74.976562 149.824219 85.851562 153.980469 96.625 154.785156 C 98.929688 154.957031 106.09375 154.652344 108.511719 154.296875 C 109.683594 154.125 111.109375 153.890625 111.695312 153.734375 C 112.285156 153.582031 113.445312 153.296875 114.285156 153.097656 C 124.097656 150.769531 134.226562 144.617188 141.539062 136.527344 C 143.496094 134.363281 146.117188 130.90625 147.199219 129.03125 L 147.988281 127.640625 L 136.628906 121.082031 C 130.390625 117.480469 125.074219 114.484375 124.816406 114.445312 C 124.546875 114.40625 123.902344 115.058594 123.28125 115.984375 C 120.261719 120.464844 114.992188 124.441406 109.710938 126.21875 C 105.875 127.507812 104.867188 127.644531 100.410156 127.640625 C 95.480469 127.636719 92.789062 127.089844 88.902344 125.316406 C 86 123.996094 84.121094 122.707031 81.253906 120.03125 C 76.300781 115.40625 73.261719 108.929688 72.78125 101.960938 C 71.859375 88.558594 80.441406 76.738281 93.625 73.167969 C 96.828125 72.296875 103.847656 72.1875 106.824219 72.976562 C 109.46875 73.6875 112.429688 74.855469 114.394531 75.976562 C 117.703125 77.859375 121.800781 81.714844 123.582031 84.597656 C 123.949219 85.191406 124.433594 85.648438 124.628906 85.648438 C 124.824219 85.644531 125.667969 85.261719 126.503906 84.785156 C 128.144531 83.855469 133.550781 80.757812 135.054688 79.875 C 135.554688 79.578125 137.3125 78.550781 138.988281 77.589844 C 140.667969 76.625 142.59375 75.511719 143.265625 75.113281 C 143.9375 74.714844 145.296875 73.953125 146.261719 73.425781 C 147.230469 72.898438 147.988281 72.378906 147.988281 72.261719 C 147.988281 72.148438 147.242188 70.902344 146.300781 69.488281 C 139.59375 59.464844 129.34375 51.660156 117.917969 47.894531 C 111.0625 45.636719 103.644531 44.800781 96.398438 45.308594 Z M 147.6875 86.628906 L 147.6875 90.113281 L 144.199219 90.113281 L 144.199219 97.125 L 147.6875 97.125 L 147.6875 104.097656 L 144.199219 104.097656 L 144.199219 111.109375 L 147.6875 111.109375 L 147.6875 114.59375 L 154.699219 114.59375 L 154.699219 111.109375 L 161.671875 111.109375 L 161.671875 114.59375 L 168.683594 114.59375 L 168.683594 111.109375 L 172.167969 111.109375 L 172.167969 104.097656 L 168.683594 104.097656 L 168.683594 97.125 L 172.167969 97.125 L 172.167969 90.113281 L 168.683594 90.113281 L 168.683594 86.628906 L 161.671875 86.628906 L 161.671875 90.113281 L 154.699219 90.113281 L 154.699219 86.628906 Z M 154.699219 97.125 L 161.671875 97.125 L 161.671875 104.097656 L 154.699219 104.097656 Z M 154.699219 97.125 "/>
</g>
</svg>
