<?xml version="1.0" encoding="UTF-8"?>
<svg xmlns="http://www.w3.org/2000/svg" xmlns:xlink="http://www.w3.org/1999/xlink" width="200pt" height="200pt" viewBox="0 0 200 200" version="1.1">
<g id="surface1">
<path style=" stroke:none;fill-rule:nonzero;fill:rgb(87.058824%,29.803922%,21.176471%);fill-opacity:1;" d="M 196.226562 91.089844 L 108.90625 3.773438 C 103.878906 -1.257812 95.722656 -1.257812 90.691406 3.773438 L 72.558594 21.90625 L 95.5625 44.90625 C 100.90625 43.101562 107.035156 44.3125 111.296875 48.574219 C 115.578125 52.863281 116.78125 59.042969 114.933594 64.40625 L 137.101562 86.574219 C 142.464844 84.726562 148.652344 85.921875 152.933594 90.214844 C 158.921875 96.199219 158.921875 105.898438 152.933594 111.886719 C 146.945312 117.875 137.246094 117.875 131.257812 111.886719 C 126.753906 107.378906 125.640625 100.765625 127.921875 95.214844 L 107.246094 74.542969 L 107.246094 128.945312 C 108.742188 129.6875 110.113281 130.667969 111.296875 131.84375 C 117.285156 137.828125 117.285156 147.53125 111.296875 153.523438 C 105.308594 159.507812 95.605469 159.507812 89.625 153.523438 C 83.640625 147.53125 83.640625 137.832031 89.625 131.847656 C 91.058594 130.410156 92.765625 129.273438 94.640625 128.5 L 94.640625 73.589844 C 92.761719 72.824219 91.058594 71.6875 89.625 70.246094 C 85.089844 65.714844 84 59.0625 86.324219 53.492188 L 63.648438 30.8125 L 3.773438 90.683594 C -1.257812 95.71875 -1.257812 103.875 3.773438 108.90625 L 91.097656 196.222656 C 96.125 201.253906 104.277344 201.253906 109.3125 196.222656 L 196.226562 109.3125 C 201.257812 104.28125 201.257812 96.117188 196.226562 91.089844 "/>
</g>
</svg>
