<?xml version="1.0" encoding="UTF-8"?>
<svg xmlns="http://www.w3.org/2000/svg" xmlns:xlink="http://www.w3.org/1999/xlink" width="200pt" height="200pt" viewBox="0 0 200 200" version="1.1">
<g id="surface1">
<path style=" stroke:none;fill-rule:nonzero;fill:rgb(85.098039%,58.823529%,40%);fill-opacity:1;" d="M 6.246094 0 L 193.753906 0 L 175.003906 181.25 L 106.25 200 L 93.75 200 L 24.996094 181.25 Z M 6.246094 0 "/>
<path style=" stroke:none;fill-rule:nonzero;fill:rgb(95.686275%,70.588235%,34.901961%);fill-opacity:1;" d="M 100 18.746094 L 168.753906 18.746094 L 156.253906 162.5 L 100 181.25 C 100 181.25 100 18.746094 100 18.746094 Z M 100 18.746094 "/>
<path style=" stroke:none;fill-rule:nonzero;fill:rgb(100%,100%,100%);fill-opacity:1;" d="M 150.113281 56.164062 L 152.082031 37.496094 L 43.546875 37.496094 L 45.734375 56.164062 L 47.734375 81.289062 L 47.710938 81.289062 L 49.605469 99.992188 L 122.363281 99.992188 L 119.863281 129.742188 L 100 136.015625 L 100 135.824219 L 73.585938 128.839844 L 71.96875 112.445312 L 49.910156 112.445312 L 52.875 142.5625 L 52.875 143.792969 L 100 156.25 L 139.519531 143.792969 L 140 143.792969 L 140.015625 143.621094 L 140.101562 143.609375 L 140.101562 142.625 L 143.675781 99.992188 L 143.757812 99.992188 L 145.65625 81.289062 L 70.675781 81.289062 L 68.675781 56.164062 Z M 150.113281 56.164062 "/>
<path style=" stroke:none;fill-rule:nonzero;fill:rgb(89.803922%,89.803922%,89.803922%);fill-opacity:1;" d="M 100 37.496094 L 43.546875 37.496094 L 45.734375 56.164062 L 47.734375 81.289062 L 47.710938 81.289062 L 49.605469 99.992188 L 100 99.992188 L 100 81.289062 L 70.675781 81.289062 L 68.675781 56.164062 L 100 56.164062 Z M 100 37.496094 "/>
<path style=" stroke:none;fill-rule:nonzero;fill:rgb(89.803922%,89.803922%,89.803922%);fill-opacity:1;" d="M 100 135.824219 L 73.585938 128.839844 L 71.96875 112.445312 L 49.910156 112.445312 L 52.875 142.5625 L 52.875 143.792969 L 100 156.25 Z M 100 135.824219 "/>
</g>
</svg>
