<?xml version="1.0" encoding="UTF-8"?>
<svg xmlns="http://www.w3.org/2000/svg" xmlns:xlink="http://www.w3.org/1999/xlink" width="200pt" height="211pt" viewBox="0 0 200 211" version="1.1">
<g id="surface1">
<path style=" stroke:none;fill-rule:nonzero;fill:rgb(70.196078%,70.196078%,70.196078%);fill-opacity:1;" d="M 99.644531 0 L 0 34.917969 L 15.746094 164.914062 L 99.75 210.886719 L 184.1875 164.289062 L 199.929688 34.300781 Z M 99.644531 0 "/>
<path style=" stroke:none;fill-rule:nonzero;fill:rgb(68.627451%,16.862745%,17.647059%);fill-opacity:1;" d="M 189.992188 41.8125 L 99.414062 11.054688 L 99.414062 199.902344 L 175.320312 158.070312 Z M 189.992188 41.8125 "/>
<path style=" stroke:none;fill-rule:nonzero;fill:rgb(87.45098%,18.039216%,19.215686%);fill-opacity:1;" d="M 11.179688 42.367188 L 24.675781 158.625 L 99.410156 199.902344 L 99.410156 11.050781 Z M 11.179688 42.367188 "/>
<path style=" stroke:none;fill-rule:nonzero;fill:rgb(94.901961%,94.901961%,94.901961%);fill-opacity:1;" d="M 120.40625 104.984375 L 99.578125 61.671875 L 81.238281 104.984375 Z M 128.351562 123.199219 L 73.132812 123.199219 L 60.78125 153.964844 L 37.804688 154.386719 L 99.414062 17.914062 L 163.171875 154.386719 L 141.875 154.386719 Z M 128.351562 123.199219 "/>
<path style=" stroke:none;fill-rule:nonzero;fill:rgb(70.196078%,70.196078%,70.196078%);fill-opacity:1;" d="M 99.414062 17.914062 L 99.578125 61.671875 L 120.386719 105.019531 L 99.460938 105.019531 L 99.414062 123.167969 L 128.347656 123.199219 L 141.871094 154.390625 L 163.859375 154.796875 Z M 99.414062 17.914062 "/>
</g>
</svg>
