<?xml version="1.0" encoding="UTF-8"?>
<svg xmlns="http://www.w3.org/2000/svg" xmlns:xlink="http://www.w3.org/1999/xlink" width="200pt" height="200pt" viewBox="0 0 200 200" version="1.1">
<g id="surface1">
<path style=" stroke:none;fill-rule:nonzero;fill:rgb(0%,41.960784%,75.294118%);fill-opacity:1;" d="M 200 100 C 200 155.226562 155.226562 200 100 200 C 44.773438 200 0 155.226562 0 100 C 0 44.773438 44.773438 0 100 0 C 150.976562 0 193.039062 38.144531 199.214844 87.445312 C 199.664062 91.007812 199.925781 94.628906 199.984375 98.296875 C 199.996094 98.867188 200 99.433594 200 100 Z M 200 100 "/>
<path style=" stroke:none;fill-rule:nonzero;fill:rgb(94.901961%,94.901961%,94.901961%);fill-opacity:1;" d="M 199.984375 98.296875 C 191.445312 108.699219 174.714844 107.886719 174.714844 107.886719 C 164.394531 152.339844 102.082031 174.964844 58.816406 163.847656 C 15.554688 152.738281 21.507812 101.136719 21.507812 101.136719 L 148.121094 101.136719 C 158.570312 101.136719 159.367188 97.964844 159.367188 97.964844 C 150.105469 76 164.394531 64.222656 164.394531 64.222656 C 175.511719 66.210938 178.285156 85.261719 178.285156 85.261719 C 187.40625 83.625 194.734375 85.570312 199.214844 87.445312 C 199.664062 91.007812 199.925781 94.628906 199.984375 98.296875 Z M 199.984375 98.296875 "/>
<path style=" stroke:none;fill-rule:nonzero;fill:rgb(94.901961%,94.901961%,94.901961%);fill-opacity:1;" d="M 35 81.027344 L 52.730469 81.027344 L 52.730469 97.167969 L 35 97.167969 Z M 35 81.027344 "/>
<path style=" stroke:none;fill-rule:nonzero;fill:rgb(94.901961%,94.901961%,94.901961%);fill-opacity:1;" d="M 57.28125 81.027344 L 75.011719 81.027344 L 75.011719 97.167969 L 57.28125 97.167969 Z M 57.28125 81.027344 "/>
<path style=" stroke:none;fill-rule:nonzero;fill:rgb(94.901961%,94.901961%,94.901961%);fill-opacity:1;" d="M 124.117188 81.027344 L 141.847656 81.027344 L 141.847656 97.167969 L 124.117188 97.167969 Z M 124.117188 81.027344 "/>
<path style=" stroke:none;fill-rule:nonzero;fill:rgb(94.901961%,94.901961%,94.901961%);fill-opacity:1;" d="M 101.839844 81.027344 L 119.570312 81.027344 L 119.570312 97.167969 L 101.839844 97.167969 Z M 101.839844 81.027344 "/>
<path style=" stroke:none;fill-rule:nonzero;fill:rgb(94.901961%,94.901961%,94.901961%);fill-opacity:1;" d="M 101.839844 39.75 L 119.570312 39.75 L 119.570312 55.890625 L 101.839844 55.890625 Z M 101.839844 39.75 "/>
<path style=" stroke:none;fill-rule:nonzero;fill:rgb(94.901961%,94.901961%,94.901961%);fill-opacity:1;" d="M 79.558594 81.027344 L 97.289062 81.027344 L 97.289062 97.167969 L 79.558594 97.167969 Z M 79.558594 81.027344 "/>
<path style=" stroke:none;fill-rule:nonzero;fill:rgb(94.901961%,94.901961%,94.901961%);fill-opacity:1;" d="M 57.28125 60.386719 L 75.011719 60.386719 L 75.011719 76.527344 L 57.28125 76.527344 Z M 57.28125 60.386719 "/>
<path style=" stroke:none;fill-rule:nonzero;fill:rgb(94.901961%,94.901961%,94.901961%);fill-opacity:1;" d="M 101.839844 60.386719 L 119.570312 60.386719 L 119.570312 76.527344 L 101.839844 76.527344 Z M 101.839844 60.386719 "/>
<path style=" stroke:none;fill-rule:nonzero;fill:rgb(94.901961%,94.901961%,94.901961%);fill-opacity:1;" d="M 79.558594 60.386719 L 97.289062 60.386719 L 97.289062 76.527344 L 79.558594 76.527344 Z M 79.558594 60.386719 "/>
</g>
</svg>
