<?xml version="1.0" encoding="UTF-8"?>
<svg xmlns="http://www.w3.org/2000/svg" xmlns:xlink="http://www.w3.org/1999/xlink" width="200pt" height="194pt" viewBox="0 0 200 194" version="1.1">
<g id="surface1">
<path style="fill-rule:nonzero;fill:rgb(100%,100%,100%);fill-opacity:1;stroke-width:69;stroke-linecap:butt;stroke-linejoin:round;stroke:rgb(100%,100%,100%);stroke-opacity:1;stroke-miterlimit:4;" d="M 546.8 49.404607 L 944.704219 239.410245 L 1043.005234 666.403963 L 767.707344 1008.795393 L 326.104375 1008.795393 L 50.700625 666.403963 L 148.895781 239.410245 Z M 546.8 49.404607 " transform="matrix(0.184502,0,0,0.184411,-0.885609,-0.571673)"/>
<path style=" stroke:none;fill-rule:nonzero;fill:rgb(19.607843%,42.352941%,89.803922%);fill-opacity:1;" d="M 99.316406 0.0351562 C 97.550781 0.125 95.820312 0.566406 94.226562 1.328125 L 24.6875 34.523438 C 21.050781 36.25 18.398438 39.542969 17.492188 43.464844 L 0.332031 118.058594 C -0.464844 121.535156 0.1875 125.183594 2.140625 128.164062 C 2.375 128.523438 2.625 128.871094 2.898438 129.214844 L 51.015625 189.019531 C 53.546875 192.160156 57.367188 193.984375 61.402344 193.980469 L 138.597656 193.980469 C 142.628906 193.988281 146.449219 192.171875 148.984375 189.039062 L 197.101562 129.214844 C 199.625 126.089844 200.570312 121.976562 199.667969 118.058594 L 182.492188 43.445312 C 181.582031 39.523438 178.933594 36.230469 175.296875 34.503906 L 105.757812 1.328125 C 103.75 0.371094 101.539062 -0.0742188 99.316406 0.0351562 Z M 99.316406 0.0351562 "/>
<path style="fill-rule:nonzero;fill:rgb(100%,100%,100%);fill-opacity:1;stroke-width:0.25;stroke-linecap:butt;stroke-linejoin:miter;stroke:rgb(100%,100%,100%);stroke-opacity:1;stroke-miterlimit:4;" d="M 546.8 140.891157 C 534.308594 140.891157 524.209609 152.096617 524.209609 165.992236 C 524.209609 166.204059 524.209609 166.3947 524.209609 166.606524 C 524.209609 168.491753 524.10375 170.694716 524.209609 172.410486 C 524.506016 180.396231 526.199766 186.496746 527.300703 193.804655 C 529.206172 209.500773 530.794062 222.591463 529.798984 234.707764 C 528.803906 239.304333 525.501094 243.498437 522.494687 246.400419 L 522.007734 255.996021 C 508.267187 257.139868 494.6325 259.23692 481.209531 262.30836 C 424.765312 275.03895 373.444687 304.376498 333.789766 346.508183 L 325.702109 340.70422 C 321.700625 341.191414 317.593281 342.50472 312.300313 339.390915 C 302.201328 332.591382 292.991562 323.207603 281.8975 311.896231 C 276.795078 306.494733 273.09 301.305058 267.098359 296.094201 L 262.101797 292.090738 C 257.634531 288.510921 252.129844 286.435052 246.392266 286.202046 C 239.469063 285.841946 232.77875 288.807474 228.396172 294.208972 C 220.604922 303.910486 223.103203 318.801675 233.900859 327.507619 L 234.197266 327.69826 L 238.897422 331.4899 C 245.291328 336.192381 251.198281 338.691898 257.592187 342.398808 C 271.099844 350.702287 282.299766 357.607732 291.107266 365.995941 C 294.600625 369.702851 295.193438 376.205831 295.595703 379.001901 L 302.794141 385.504881 C 262.9275 445.345006 246.540469 517.80981 256.808828 589.003673 L 247.408516 591.693831 C 244.910234 594.892365 241.395703 599.99731 237.690625 601.501256 C 226.109609 605.208167 213.004219 606.50029 197.294688 608.194878 C 189.905703 608.809166 183.490625 608.406701 175.699375 609.889465 L 169.707734 611.308682 L 169.199609 611.308682 C 155.903672 614.507216 147.392578 626.708247 150.102578 638.803367 C 152.791406 650.898486 165.790938 658.206395 179.192734 655.304414 L 179.997266 655.304414 L 185.798359 653.991108 C 193.504922 651.894056 199.094297 648.907345 205.996328 646.196005 C 220.901328 640.794507 233.308047 636.409762 245.291328 634.609262 C 250.309063 634.206798 255.602031 637.701885 258.290859 639.205831 L 268.093437 637.490061 C 290.196875 705.676031 336.478594 763.397922 398.194609 799.810374 L 394.108437 809.596617 C 395.590469 813.409439 397.199531 818.599114 396.098594 822.390754 C 391.694844 833.808038 384.2 845.691334 375.710078 859.099758 C 371.602734 865.306186 367.304844 870.093396 363.599766 877.104752 C 362.710547 878.79934 361.609609 881.404768 360.699219 883.205267 C 354.898125 895.596939 359.196016 909.895023 370.290078 915.296521 C 381.405312 920.698019 395.399922 914.999968 401.391563 902.608296 C 402.301953 900.807796 403.50875 898.498921 404.207422 896.910245 C 407.404375 889.602336 408.505313 883.289997 410.707188 876.193911 C 416.698828 861.196811 419.895781 845.500693 428.195156 835.693267 C 430.397031 833.003109 434.102109 832.007539 437.891875 830.990786 L 442.994297 821.691736 C 509.982109 847.449468 584.104844 847.64011 651.198516 822.200113 L 656.004531 830.906057 C 659.900156 832.19818 664.092187 832.791285 667.500859 837.896231 C 673.598359 848.402674 677.89625 860.794346 682.998672 875.791447 C 685.200547 882.908715 686.407344 889.199871 689.604297 896.50778 C 690.302969 898.202368 691.509766 900.490061 692.398984 902.290561 C 698.390625 914.809327 712.406406 920.507378 723.606328 915.10588 C 734.80625 909.704381 738.998281 895.491028 733.197187 882.993444 C 732.307969 881.192945 731.207031 878.608698 730.296641 876.892928 C 726.591562 869.796843 722.293672 865.094362 718.2075 858.909117 C 709.696406 845.500693 702.603828 834.401144 698.200078 823.089771 C 696.400469 817.201079 698.496484 813.600081 699.893828 809.808441 C 699.004609 808.791688 697.205 803.305461 696.104062 800.700032 C 758.031797 763.969845 804.313516 705.739578 826.099375 637.108779 L 835.690234 638.803367 C 839.098906 636.600403 842.19 633.59251 848.308672 634.100886 C 860.291953 635.795474 872.698672 640.307313 887.603672 645.708811 C 894.505703 648.398969 900.095078 651.406862 907.801641 653.503914 L 913.602734 654.796037 L 914.407266 654.796037 C 927.809062 657.698019 940.808594 650.39011 943.497422 638.29499 C 946.207422 626.199871 937.696328 613.99884 924.400391 610.800306 L 917.794766 609.29636 C 910.003516 607.792413 903.609609 608.194878 896.199453 607.601772 C 880.405234 605.907184 867.405703 604.593879 855.803516 600.908151 C 851.103359 599.107651 847.694687 593.409601 846.106797 591.100725 L 837.002891 588.410567 C 846.741953 517.259069 830.016172 445.027271 790.001328 385.398969 L 798.004297 378.196972 C 798.406562 374.193508 798.110156 369.893492 802.196328 365.402835 C 811.109687 357.099356 822.309609 350.193911 835.690234 341.805702 C 842.105312 337.99288 847.991094 335.599275 854.406172 330.896794 L 859.402734 326.893331 C 870.200391 318.293299 872.698672 303.40211 864.907422 293.594684 C 857.095 283.808441 842.105312 282.8976 831.307656 291.603544 L 826.289922 295.607007 C 820.192422 300.796682 816.508516 306.007539 811.406094 311.409037 C 800.290859 322.699227 791.102266 332.104188 781.003281 338.903721 C 776.599531 341.403238 770.205625 340.598309 767.305078 340.407668 L 758.709297 346.508183 C 709.315312 294.653802 642.793281 262.499001 571.507578 255.996021 C 571.295859 253.009311 570.999453 247.607812 570.999453 245.892043 C 568.098906 243.095973 564.499687 240.702368 563.610469 234.601852 C 562.594219 222.506733 564.309141 209.394861 566.193437 193.698744 C 567.209687 186.306105 569.009297 180.20559 569.305703 172.304575 C 569.390391 170.504075 569.305703 167.898647 569.305703 165.907506 C 569.305703 152.096617 559.206719 140.806427 546.694141 140.806427 Z M 518.599062 315.899694 L 511.90875 434.203093 L 511.400625 434.393734 C 511.083047 441.722825 506.742813 448.26817 500.137187 451.445522 C 493.531563 454.622874 485.719141 453.923856 479.791016 449.602658 L 479.600469 449.602658 L 382.590937 380.8024 C 413.480703 350.426917 452.246406 329.308119 494.505469 319.797245 C 502.466094 318.081476 510.511406 316.789352 518.599062 315.899694 Z M 575.106797 315.899694 C 626.046328 322.212033 673.513672 345.088966 710.204531 380.993041 L 613.808984 449.306105 L 613.491406 449.306105 C 607.584453 453.606121 599.750859 454.326321 593.145234 451.148969 C 586.539609 447.971617 582.220547 441.426273 581.902969 434.097181 L 581.797109 434.097181 Z M 347.403281 425.200596 L 436.007578 504.401385 L 436.007578 504.909762 C 441.533437 509.718154 443.968203 517.17434 442.337969 524.333972 C 440.707734 531.493605 435.266563 537.149291 428.195156 539.098067 L 428.195156 539.500532 L 314.396328 572.206073 C 308.743438 520.860068 320.345625 469.111598 347.403281 425.094684 Z M 745.603906 425.200596 C 772.576875 469.069233 784.517812 520.542332 779.605937 571.803608 L 665.404844 538.992155 L 665.404844 538.504961 C 658.333437 536.556186 652.892266 530.879317 651.262031 523.740867 C 649.631797 516.581234 652.066562 509.125048 657.592422 504.295474 L 657.592422 504.104832 L 745.709766 425.200596 Z M 528.592187 510.607812 L 564.901953 510.607812 L 587.492344 538.801514 L 579.404687 574.006572 L 546.8 589.70269 L 514.089453 574.006572 L 506.001797 538.695602 Z M 644.995156 607.008666 C 646.540703 606.923937 648.08625 607.029849 649.589453 607.305219 L 649.801172 607.093396 L 767.199219 627.0048 C 749.859453 675.724195 716.788984 717.283956 673.196094 745.096376 L 627.591875 634.990544 L 627.591875 634.799903 C 625.05125 628.784117 625.580547 621.899855 629.052734 616.371263 C 632.524922 610.821488 638.474219 607.326401 644.995156 607.008666 Z M 447.694453 607.49586 C 454.32125 607.601772 460.461094 610.990947 464.081484 616.561904 C 467.680703 622.111678 468.294688 629.101852 465.690547 635.202368 L 466.008125 635.604832 L 420.890859 744.609182 C 377.615547 716.881492 344.672109 675.639465 327.205312 627.301353 L 443.608281 607.49586 L 443.798828 607.707684 C 445.090312 607.474678 446.402969 607.368766 447.694453 607.389948 Z M 546.101328 655.304414 C 553.659687 655.09259 560.68875 659.159601 564.309141 665.789675 L 564.690234 665.789675 L 622.108359 769.498438 C 614.571172 772.019137 606.928125 774.158553 599.200391 775.895506 C 556.983672 785.554655 512.903828 783.266962 471.893906 769.307796 L 529.206172 665.789675 L 529.290859 665.789675 C 532.636016 659.562065 539.029922 655.558602 546.101328 655.304414 Z M 546.101328 655.304414 " transform="matrix(0.184502,0,0,0.184411,-0.885609,-0.571673)"/>
</g>
</svg>
